<svg width="441" height="439" viewBox="0 0 441 439" fill="none" xmlns="http://www.w3.org/2000/svg">
<path d="M203.38 0.845337C153.299 4.64194 105.736 25.7547 68.711 60.4797C-8.97535 133.449 -22.4982 252.44 36.909 340.595C73.001 394.118 128.957 428.38 194.427 436.991C205.804 438.473 234.249 438.473 246.186 436.991C296.734 430.695 343.457 407.822 378.244 372.449C412.377 337.539 433.641 293.461 439.796 244.754C441.288 232.901 441.288 204.658 439.796 193.361C431.123 128.356 396.616 72.7955 342.711 36.9593C311.003 15.8465 274.911 3.71591 235.461 0.752716C221.472 -0.265869 218.115 -0.265869 203.38 0.845337ZM238.726 18.3467C244.414 18.9023 254.393 20.3839 261.108 21.6803C314.64 32.2367 364.068 66.1283 392.699 112.058C430.004 171.878 433.921 244.846 403.238 307.259C382.72 349.021 351.198 380.32 309.137 400.692C246.28 431.158 172.79 427.268 112.544 390.228C89.2283 375.875 67.4053 354.763 51.6442 331.427C43.0642 318.741 32.246 296.795 27.5829 282.72C3.70813 210.214 22.7334 130.393 76.9179 76.6847C93.052 60.5723 110.026 48.6269 131.476 38.1631C165.236 21.7729 201.701 15.0131 238.726 18.3467Z" fill="black"/>
<path d="M200.022 35.1073C166.915 38.8113 133.341 52.3309 106.295 72.8881C98.3679 78.8145 82.4203 94.3713 75.7055 102.613C30.2874 158.451 21.1479 236.235 52.67 299.666C62.4624 319.482 71.229 332.076 85.7777 346.984C102.658 364.3 117.673 375.32 138.563 385.506C190.696 411.063 251.782 410.878 303.915 384.95C323.873 375.042 338.328 364.3 354.835 347.447C369.664 332.261 378.15 320.408 387.57 301.703C413.496 250.217 413.496 188.36 387.57 136.875C358.939 80.1109 303.635 41.9597 239.938 35.1073C229.586 33.9035 210.281 33.9961 200.022 35.1073ZM352.317 98.3531C378.617 127.43 394.005 160.673 398.668 198.176C400.16 209.936 399.414 239.198 397.362 250.31C394.658 265.311 385.332 293.647 383.746 291.795C383.093 291.054 358.566 206.14 358.566 204.565C358.566 204.102 361.364 202.991 364.721 202.065C368.078 201.232 371.063 200.028 371.249 199.472C371.436 198.917 364.348 173.174 355.488 142.338L339.354 86.1299L342.805 88.9079C344.763 90.4821 348.96 94.6491 352.317 98.3531ZM311.376 96.3159C312.122 99.0013 319.583 124.929 327.79 154.006C336.09 182.99 343.084 207.066 343.271 207.436C343.457 207.714 346.628 207.158 350.265 206.14C353.903 205.121 356.98 204.473 357.167 204.658C357.913 205.491 383 294.387 382.534 294.85C381.601 295.869 333.852 308.926 333.292 308.277C333.012 308 327.23 288.183 320.422 264.292C313.614 240.402 307.832 220.307 307.552 219.659C307.272 218.826 308.858 217.992 312.588 216.881C315.572 216.048 318.277 215.122 318.65 214.751C319.023 214.474 311.842 188.083 302.702 156.321C293.563 124.466 286.195 98.2605 286.382 98.0753C286.662 97.7049 307.272 91.7785 308.858 91.5933C309.417 91.5007 310.536 93.7231 311.376 96.3159ZM274.165 164.655C289.459 218.178 290.952 222.993 292.63 222.437C293.563 222.159 297.107 221.141 300.371 220.215L306.34 218.548L307.272 221.882C307.739 223.734 313.614 244.198 320.142 267.163L332.173 309.111L329.282 309.944C327.696 310.407 315.666 313.833 302.609 317.445C289.553 321.056 267.73 327.168 254.207 330.964C240.684 334.761 229.399 337.632 229.12 337.354C228.56 336.798 169.433 130.948 169.712 130.578C169.806 130.485 177.733 128.078 187.339 125.392L204.685 120.485L206.084 125.207C206.83 127.8 214.384 154.006 222.778 183.545C231.265 212.992 238.259 237.253 238.446 237.438C238.632 237.531 241.803 236.79 245.627 235.772C250.756 234.29 252.528 234.012 253.088 234.846C253.461 235.494 259.429 255.681 266.237 279.664C273.045 303.74 278.828 323.001 279.014 322.445C279.201 321.982 273.698 301.795 266.704 277.627C259.802 253.458 254.3 233.549 254.487 233.457C254.673 233.271 257.471 232.345 260.735 231.419C265.678 230.03 266.61 229.382 266.424 227.993C266.237 227.067 258.963 201.417 250.29 171.137C241.523 140.857 234.342 115.299 234.249 114.28C234.062 112.706 235.555 112.058 244.321 109.465C250.01 107.798 255.233 106.409 256.072 106.409C257.191 106.317 261.108 119.188 274.165 164.655ZM198.064 234.105C213.918 289.387 227.068 335.409 227.254 336.335C227.534 338.002 224.83 338.928 202.354 345.41C188.551 349.299 176.8 352.448 176.334 352.355C174.842 351.892 149.755 263.366 150.967 262.626C151.527 262.255 154.697 261.329 158.148 260.496L164.303 259.014L147.703 201.417C138.563 169.748 131.102 143.172 131.009 142.431C131.009 141.412 135.952 139.653 149.475 135.856C165.702 131.226 167.94 130.856 168.593 132.152C168.966 132.986 182.209 178.823 198.064 234.105ZM118.419 207.714C127.652 239.753 135.206 266.237 135.392 266.422C135.486 266.607 138.47 265.959 141.921 265.033C145.371 264.107 148.449 263.366 148.542 263.274C148.729 263.274 154.697 283.368 161.785 308C170.179 337.354 174.282 352.911 173.536 353.188C172.977 353.374 161.692 356.615 148.542 360.319L124.667 367.171L112.264 324.019C105.456 300.314 99.7668 280.034 99.5803 278.923C99.2072 277.256 99.9533 276.793 105.269 275.404C108.627 274.478 111.424 273.46 111.424 273.089C111.424 272.812 103.87 246.328 94.6374 214.288C85.4046 182.249 77.9437 155.95 78.1303 155.858C78.5033 155.58 101.632 149.191 101.725 149.283C101.725 149.283 109.279 175.582 118.419 207.714ZM66.2861 223.456C75.3324 255.032 82.8866 281.053 83.0731 281.238C83.2596 281.423 86.617 280.683 90.534 279.571C94.4509 278.46 97.715 277.627 97.9016 277.812C97.9948 277.997 103.684 297.443 110.399 321.149C117.113 344.854 122.895 364.949 123.175 365.782C124.201 369.116 120.377 367.449 111.611 360.782C73.0942 331.705 48.1003 287.813 42.3181 239.29C41.0124 227.808 41.7585 199.38 43.6237 189.194C45.3024 180.582 49.0329 165.396 49.4992 165.766C49.5924 165.951 57.1466 191.879 66.2861 223.456Z" fill="black"/>
</svg>
